<svg width="20" height="20" viewBox="0 0 20 20" fill="none" xmlns="http://www.w3.org/2000/svg">
<path d="M3.34999 4.97502C2.29166 6.37502 1.66666 8.11669 1.66666 10C1.66666 14.6 5.39999 18.3334 9.99999 18.3334C14.6 18.3334 18.3333 14.6 18.3333 10C18.3333 5.40002 14.6 1.66669 9.99999 1.66669" stroke="#3A3A3C" stroke-width="1.5" stroke-linecap="round" stroke-linejoin="round"/>
<path d="M4.16666 10C4.16666 13.225 6.77499 15.8334 9.99999 15.8334C13.225 15.8334 15.8333 13.225 15.8333 10C15.8333 6.77502 13.225 4.16669 9.99999 4.16669" stroke="#3A3A3C" stroke-width="1.5" stroke-linecap="round" stroke-linejoin="round"/>
<path d="M10 13.3334C11.8417 13.3334 13.3333 11.8417 13.3333 10C13.3333 8.15835 11.8417 6.66669 10 6.66669" stroke="#3A3A3C" stroke-width="1.5" stroke-linecap="round" stroke-linejoin="round"/>
</svg>
