<svg width="23" height="22" viewBox="0 0 23 22" fill="none" xmlns="http://www.w3.org/2000/svg">
<path d="M14.4174 21.6997H8.41736C2.98736 21.6997 0.667358 19.3797 0.667358 13.9497V7.94971C0.667358 2.51971 2.98736 0.199707 8.41736 0.199707H14.4174C19.8474 0.199707 22.1674 2.51971 22.1674 7.94971V13.9497C22.1674 19.3797 19.8474 21.6997 14.4174 21.6997ZM8.41736 1.69971C3.80736 1.69971 2.16736 3.33971 2.16736 7.94971V13.9497C2.16736 18.5597 3.80736 20.1997 8.41736 20.1997H14.4174C19.0274 20.1997 20.6674 18.5597 20.6674 13.9497V7.94971C20.6674 3.33971 19.0274 1.69971 14.4174 1.69971H8.41736Z" fill="#6F7181"/>
<path d="M6.74733 14.1897C6.58733 14.1897 6.42733 14.1397 6.28733 14.0297C6.20919 13.97 6.14359 13.8954 6.09426 13.8103C6.04494 13.7252 6.01286 13.6312 5.99986 13.5337C5.98686 13.4362 5.99319 13.3371 6.01849 13.242C6.0438 13.147 6.08758 13.0578 6.14733 12.9797L8.52733 9.8897C8.81733 9.5197 9.22733 9.2797 9.69733 9.2197C10.1573 9.1597 10.6273 9.2897 10.9973 9.5797L12.8273 11.0197C12.8973 11.0797 12.9673 11.0797 13.0173 11.0697C13.0573 11.0697 13.1273 11.0497 13.1873 10.9697L15.4973 7.9897C15.5571 7.91131 15.6319 7.84565 15.7173 7.79656C15.8028 7.74747 15.8972 7.71594 15.995 7.70383C16.0928 7.69172 16.192 7.69927 16.2869 7.72604C16.3817 7.75281 16.4703 7.79825 16.5473 7.8597C16.8773 8.1097 16.9373 8.5797 16.6773 8.9097L14.3673 11.8897C14.0773 12.2597 13.6673 12.4997 13.1973 12.5497C12.7273 12.6097 12.2673 12.4797 11.8973 12.1897L10.0673 10.7497C10.0417 10.7272 10.0112 10.711 9.97822 10.7023C9.94525 10.6936 9.91071 10.6927 9.87733 10.6997C9.83733 10.6997 9.76733 10.7197 9.70733 10.7997L7.32733 13.8897C7.19733 14.0897 6.97733 14.1897 6.74733 14.1897Z" fill="#6F7181"/>
</svg>
