<svg width="26" height="25" viewBox="0 0 26 25" fill="none" xmlns="http://www.w3.org/2000/svg">
<g clip-path="url(#clip0_13_1115)">
<path opacity="0.4" d="M7.61565 9.60561L12.6452 7.48561C12.8667 7.39561 13.1197 7.39561 13.3306 7.48561L18.3708 9.60561C18.8136 9.79561 19.2248 9.28561 18.9191 8.92561L13.6469 2.81561C13.2884 2.39561 12.698 2.39561 12.3395 2.81561L7.06735 8.92561C6.76157 9.28561 7.17279 9.79561 7.61565 9.60561Z" fill="#55C960"/>
<path opacity="0.4" d="M7.61566 15.4056L12.6558 17.5256C12.8772 17.6156 13.1303 17.6156 13.3412 17.5256L18.3813 15.4056C18.8242 15.2156 19.2354 15.7256 18.9296 16.0856L13.6575 22.1956C13.299 22.6156 12.7085 22.6156 12.35 22.1956L7.07791 16.0856C6.76158 15.7256 7.16226 15.2156 7.61566 15.4056Z" fill="#55C960"/>
<path d="M12.7613 9.99561L8.40649 12.0556C8.01636 12.2356 8.01636 12.7656 8.40649 12.9456L12.7613 15.0056C12.9089 15.0756 13.0881 15.0756 13.2357 15.0056L17.5905 12.9456C17.9806 12.7656 17.9806 12.2356 17.5905 12.0556L13.2357 9.99561C13.162 9.96105 13.0808 9.94307 12.9985 9.94307C12.9162 9.94307 12.835 9.96105 12.7613 9.99561Z" fill="#55C960"/>
</g>
<defs>
<clipPath id="clip0_13_1115">
<rect width="25.3061" height="24" fill="white" transform="translate(0.340149 0.505615)"/>
</clipPath>
</defs>
</svg>
