<svg width="60" height="60" viewBox="0 0 60 60" fill="none" xmlns="http://www.w3.org/2000/svg">
<path d="M30 60C46.5685 60 60 46.5685 60 30C60 13.4315 46.5685 0 30 0C13.4315 0 0 13.4315 0 30C0 46.5685 13.4315 60 30 60Z" fill="#FEE55A"/>
<path d="M4.58754 30C4.58754 14.2032 16.797 1.25824 32.2938 0.0866016C31.5367 0.0292969 30.7718 0 30 0C13.4314 0 0 13.4314 0 30C0 46.5686 13.4314 60 30 60C30.7718 60 31.5367 59.9707 32.2937 59.9134C16.797 58.7418 4.58754 45.7968 4.58754 30Z" fill="#FFD301"/>
<path d="M29.9997 55.8439C44.2729 55.8439 55.8437 44.2732 55.8437 30C55.8437 15.7267 44.2729 4.15601 29.9997 4.15601C15.7265 4.15601 4.15576 15.7267 4.15576 30C4.15576 44.2732 15.7265 55.8439 29.9997 55.8439Z" fill="#FFD301"/>
<path d="M9.7708 30C9.7708 16.6755 19.8548 5.7078 32.8072 4.30835C31.8849 4.20874 30.9485 4.15601 29.9997 4.15601C15.7265 4.15601 4.15576 15.7267 4.15576 30C4.15576 44.2732 15.7265 55.8439 29.9997 55.8439C30.9486 55.8439 31.8849 55.7913 32.8072 55.6916C19.8548 54.2921 9.7708 43.3244 9.7708 30Z" fill="#FFC20C"/>
<path d="M42.0789 35.3716C42.0874 32.8724 40.823 30.6626 38.8984 29.3548C38.7347 29.2436 38.6955 29.0208 38.8109 28.86C39.6615 27.6736 40.1639 26.2216 40.1639 24.6536C40.1639 21.2534 37.8075 18.3933 34.6419 17.6205C34.4864 17.5825 34.3787 17.4406 34.3787 17.2805V14.3736C34.3787 13.3545 33.5957 12.4777 32.5778 12.4298C31.491 12.3786 30.5938 13.2446 30.5938 14.3201V17.0631C30.5938 17.2574 30.4363 17.4148 30.2422 17.4148H27.7283C27.5341 17.4148 27.3766 17.2574 27.3766 17.0631V14.3736C27.3766 13.3545 26.5936 12.4777 25.5757 12.4298C24.4889 12.3786 23.5917 13.2446 23.5917 14.3201V17.0631C23.5917 17.2574 23.4343 17.4148 23.2401 17.4148H20.8498C19.8307 17.4148 18.9539 18.198 18.906 19.2157C18.8548 20.3025 19.7208 21.1997 20.7963 21.1997H21.5047C21.6989 21.1997 21.8564 21.3571 21.8564 21.5514V38.4484C21.8564 38.6426 21.6989 38.8001 21.5047 38.8001H20.8499C19.8308 38.8001 18.954 39.5832 18.9061 40.6011C18.8549 41.6879 19.7209 42.585 20.7964 42.585H23.2403C23.4344 42.585 23.5918 42.7424 23.5918 42.9367V45.6263C23.5918 46.6454 24.3749 47.5222 25.3928 47.5701C26.4796 47.6213 27.3767 46.7553 27.3767 45.6797V42.9366C27.3767 42.7423 27.5343 42.5849 27.7284 42.5849H30.2423C30.4365 42.5849 30.5939 42.7423 30.5939 42.9366V45.6262C30.5939 46.6452 31.3769 47.522 32.3948 47.57C33.4816 47.6212 34.3788 46.7552 34.3788 45.6796V42.9365C34.3788 42.7422 34.5363 42.5848 34.7304 42.5848C38.7362 42.585 42.065 39.3776 42.0789 35.3716ZM25.6411 21.7195C25.6411 21.4325 25.8737 21.1999 26.1607 21.1999H32.8516C34.731 21.1999 36.3216 22.6706 36.3773 24.5492C36.4352 26.5011 34.8643 28.1075 32.9251 28.1075H26.1607C25.8737 28.1075 25.6411 27.8749 25.6411 27.5879V21.7195ZM38.2924 35.4508C38.2366 37.3293 36.646 38.8 34.7667 38.8H26.1607C25.8737 38.8 25.6411 38.5674 25.6411 38.2804V32.4119C25.6411 32.125 25.8737 31.8923 26.1607 31.8923H34.8402C36.7794 31.8924 38.3503 33.4988 38.2924 35.4508Z" fill="#E49824"/>
<path d="M32.9096 17.0631V14.3201C32.9096 13.7154 33.1933 13.177 33.6347 12.8304C33.3404 12.597 32.9776 12.4485 32.5772 12.4298C31.4904 12.3786 30.5933 13.2446 30.5933 14.3201V17.0631C30.5933 17.2574 30.4358 17.4148 30.2417 17.4148H32.558C32.7522 17.4148 32.9096 17.2574 32.9096 17.0631Z" fill="#DF751C"/>
<path d="M21.2222 40.6011C21.2701 39.5832 22.1469 38.8001 23.166 38.8001H23.8208C24.015 38.8001 24.1725 38.6427 24.1725 38.4484V21.5515C24.1725 21.3573 24.015 21.1998 23.8208 21.1998H23.1124C22.0369 21.1998 21.1708 20.3027 21.2221 19.2159C21.27 18.198 22.1468 17.4149 23.1658 17.4149H20.8495C19.8304 17.4149 18.9537 18.1981 18.9057 19.2159C18.8545 20.3027 19.7205 21.1998 20.7961 21.1998H21.5045C21.6987 21.1998 21.8562 21.3572 21.8562 21.5515V38.4486C21.8562 38.6427 21.6987 38.8002 21.5045 38.8002H20.8496C19.8306 38.8002 18.9538 39.5833 18.9058 40.6012C18.8546 41.688 19.7206 42.5852 20.7962 42.5852H23.1125C22.037 42.5852 21.171 41.6878 21.2222 40.6011Z" fill="#DF751C"/>
<path d="M25.9076 17.0631V14.3201C25.9076 13.7154 26.1913 13.177 26.6328 12.8304C26.3384 12.597 25.9756 12.4485 25.5753 12.4298C24.4885 12.3786 23.5913 13.2446 23.5913 14.3201V17.0631C23.5913 17.2574 23.4339 17.4148 23.2397 17.4148H25.5561C25.7503 17.4148 25.9076 17.2574 25.9076 17.0631Z" fill="#DF751C"/>
<path d="M32.9096 45.6263V42.9368C32.9096 42.7425 32.7521 42.5851 32.558 42.5851H30.2417C30.4359 42.5851 30.5933 42.7425 30.5933 42.9368V45.6263C30.5933 46.6454 31.3763 47.5222 32.3942 47.5701C32.87 47.5925 33.3093 47.4392 33.653 47.1695C33.199 46.8092 32.9096 46.2446 32.9096 45.6263Z" fill="#DF751C"/>
<path d="M25.9078 45.6263V42.9368C25.9078 42.7425 25.7504 42.5851 25.5561 42.5851H23.2397C23.4339 42.5851 23.5913 42.7425 23.5913 42.9368V45.6263C23.5913 46.6454 24.3744 47.5222 25.3922 47.5701C25.868 47.5925 26.3074 47.4392 26.6511 47.1695C26.1972 46.8092 25.9078 46.2446 25.9078 45.6263Z" fill="#DF751C"/>
<path d="M55.8446 29.0945H52.6103V28.6558C52.6103 28.1557 52.205 27.7504 51.7049 27.7504C51.2049 27.7504 50.7996 28.1557 50.7996 28.6558V31.3442C50.7996 31.8442 51.2049 32.2495 51.7049 32.2495C52.205 32.2495 52.6103 31.8442 52.6103 31.3442V30.9054H55.8446C56.3446 30.9054 56.75 30.5001 56.75 30C56.75 29.4999 56.3446 29.0945 55.8446 29.0945Z" fill="#FEE55A"/>
<path d="M28.656 9.20116H31.3444C31.8444 9.20116 32.2498 8.79581 32.2498 8.29577C32.2498 7.79573 31.8444 7.39038 31.3444 7.39038H30.9057V4.156C30.9057 3.65596 30.5003 3.25061 30.0003 3.25061C29.5002 3.25061 29.0949 3.65596 29.0949 4.156V7.39026H28.6561C28.1561 7.39026 27.7507 7.79561 27.7507 8.29565C27.7505 8.79581 28.156 9.20116 28.656 9.20116Z" fill="#FEE55A"/>
<path d="M31.3444 50.7987H28.6561C28.1561 50.7987 27.7507 51.2041 27.7507 51.7041C27.7507 52.2041 28.1561 52.6095 28.6561 52.6095H29.0949V55.8437C29.0949 56.3438 29.5002 56.7491 30.0003 56.7491C30.5003 56.7491 30.9057 56.3438 30.9057 55.8437V52.6095H31.3444C31.8444 52.6095 32.2498 52.2041 32.2498 51.7041C32.2499 51.2041 31.8444 50.7987 31.3444 50.7987Z" fill="#FEE55A"/>
<path d="M7.391 31.344C7.391 31.8441 7.79635 32.2494 8.29639 32.2494C8.79643 32.2494 9.20178 31.8441 9.20178 31.344V28.6558C9.20178 28.1557 8.79643 27.7504 8.29639 27.7504C7.79635 27.7504 7.391 28.1557 7.391 28.6558V29.0945H4.1742C4.16377 29.3952 4.15674 29.6967 4.15674 29.9999C4.15674 30.3031 4.16389 30.6046 4.1742 30.9053H7.391V31.344Z" fill="#FEE55A"/>
<path d="M10.4502 25.8604C10.5263 25.8801 10.6025 25.8895 10.6777 25.8895C11.0804 25.8895 11.4479 25.6187 11.5536 25.2107C12.7855 20.452 15.9148 16.2542 20.1391 13.6938C20.5668 13.4346 20.7033 12.8778 20.4441 12.4501C20.185 12.0225 19.6282 11.8858 19.2005 12.145C14.5078 14.9894 11.1695 19.4684 9.80063 24.757C9.67524 25.2411 9.96609 25.7352 10.4502 25.8604Z" fill="#FEE55A"/>
<path d="M39.2436 11.2903C38.7953 11.0686 38.2523 11.252 38.0304 11.7001C37.8086 12.1482 37.9921 12.6914 38.4402 12.9132C43.4138 15.375 47.0611 19.8573 48.4469 25.2109C48.5525 25.6189 48.9201 25.8896 49.3228 25.8896C49.3979 25.8896 49.4742 25.8802 49.5503 25.8606C50.0344 25.7353 50.3253 25.2412 50.2 24.7571C48.6823 18.8938 44.6889 13.9854 39.2436 11.2903Z" fill="#FEE55A"/>
<path d="M49.5508 34.1395C49.0668 34.0141 48.5726 34.305 48.4474 34.7892C47.0616 40.1428 43.4143 44.6251 38.4407 47.0868C37.9926 47.3087 37.8091 47.8518 38.0309 48.3C38.1889 48.6191 38.5096 48.8039 38.8432 48.8039C38.978 48.8039 39.115 48.7736 39.2442 48.7098C44.6894 46.0146 48.6829 41.1062 50.2006 35.2429C50.3258 34.7588 50.0349 34.2648 49.5508 34.1395Z" fill="#FEE55A"/>
<path d="M20.1386 46.3057C15.8525 43.7076 12.8036 39.6175 11.5537 34.789C11.4283 34.3049 10.9344 34.0141 10.4503 34.1393C9.96616 34.2646 9.67531 34.7587 9.80058 35.2428C11.1694 40.531 14.5075 45.0099 19.1998 47.8542C19.3466 47.9432 19.5084 47.9855 19.6682 47.9855C19.9744 47.9855 20.273 47.8302 20.4434 47.5493C20.7028 47.1218 20.5662 46.5649 20.1386 46.3057Z" fill="#FEE55A"/>
</svg>
