<svg width="60" height="60" viewBox="0 0 60 60" fill="none" xmlns="http://www.w3.org/2000/svg">
<path d="M30 60C46.5685 60 60 46.5685 60 30C60 13.4315 46.5685 0 30 0C13.4315 0 0 13.4315 0 30C0 46.5685 13.4315 60 30 60Z" fill="#FD9468"/>
<path d="M44.8853 3.94812C47.9905 8.67289 49.7988 14.326 49.7988 20.4024C49.7988 36.971 36.3674 50.4024 19.7988 50.4024C14.3817 50.4024 9.30025 48.966 4.91357 46.4543C10.2755 54.6125 19.5079 60 30 60C46.5686 60 60 46.5685 60 30C60 18.8485 53.9153 9.11878 44.8853 3.94812Z" fill="#FE7D43"/>
<path d="M30 56.1229C44.4273 56.1229 56.1229 44.4273 56.1229 30C56.1229 15.5728 44.4273 3.8772 30 3.8772C15.5728 3.8772 3.8772 15.5728 3.8772 30C3.8772 44.4273 15.5728 56.1229 30 56.1229Z" fill="#FFDCCE"/>
<path d="M30.3411 21.9827L35.5847 27.2273C35.7733 27.416 36.0792 27.416 36.2677 27.2273L39.0316 24.4629C39.2201 24.2743 39.2201 23.9686 39.0316 23.78L30.3409 15.0874C30.1524 14.8988 29.8465 14.8988 29.658 15.0874L20.9705 23.7769C20.782 23.9654 20.782 24.2712 20.9705 24.4597L23.7344 27.2242C23.9229 27.4129 24.2288 27.4129 24.4174 27.2242L29.658 21.9827C29.8468 21.7941 30.1525 21.7941 30.3411 21.9827Z" fill="#FD9468"/>
<path d="M17.8539 26.8936L15.0899 29.6582C14.9013 29.8467 14.9013 30.1525 15.0899 30.341L17.8537 33.1055C18.0422 33.2941 18.3481 33.2941 18.5366 33.1055L21.3006 30.3409C21.4892 30.1523 21.4892 29.8466 21.3006 29.6581L18.5367 26.8937C18.3483 26.705 18.0426 26.705 17.8539 26.8936Z" fill="#FD9468"/>
<path d="M30.3412 44.9128L39.0333 36.2186C39.2219 36.0299 39.2219 35.7241 39.0331 35.5355L36.2677 32.7726C36.079 32.5842 35.7734 32.5843 35.5848 32.7728L30.3412 38.0173C30.1526 38.206 29.8467 38.206 29.6582 38.0173L24.4171 32.7754C24.2287 32.587 23.9233 32.5867 23.7346 32.7749L20.9666 35.5358C20.7776 35.7243 20.7774 36.0303 20.9662 36.2191L29.6582 44.9126C29.8469 45.1013 30.1526 45.1013 30.3412 44.9128Z" fill="#FD9468"/>
<path d="M41.463 26.8952L38.699 29.6598C38.5105 29.8483 38.5105 30.1541 38.699 30.3426L41.4629 33.1071C41.6515 33.2957 41.9573 33.2957 42.1459 33.1071L44.9099 30.3425C45.0984 30.154 45.0984 29.8482 44.9099 29.6597L42.146 26.8952C41.9573 26.7066 41.6516 26.7066 41.463 26.8952Z" fill="#FD9468"/>
<path d="M33.1576 29.6585L30.3412 26.8416C30.1526 26.6529 29.8468 26.6529 29.6582 26.8416L26.8419 29.6585C26.6533 29.8471 26.6533 30.1528 26.8419 30.3414L29.6582 33.1586C29.8468 33.3472 30.1526 33.3472 30.3412 33.1586L33.1576 30.3414C33.3461 30.1527 33.3461 29.8471 33.1576 29.6585Z" fill="#FD9468"/>
<path d="M48.4608 11.5179C49.3301 14.3255 49.7988 17.3092 49.7988 20.4025C49.7988 36.9711 36.3673 50.4025 19.7988 50.4025C17.3439 50.4025 14.9587 50.1054 12.675 49.5493C17.2859 53.6385 23.3524 56.123 30 56.123C44.4274 56.123 56.1229 44.4274 56.1229 30.0002C56.1228 22.7811 53.1944 16.246 48.4608 11.5179Z" fill="#FFD1BE"/>
</svg>
