 <svg
              width="29"
              height="32"
              viewBox="0 0 29 32"
              fill="#fff"
              xmlns="http://www.w3.org/2000/svg"
            >
              <path
                d="M5.24739 0C5.43789 1.34923 6.05445 2.59947 7.00463 3.56326C7.9548 4.52704 9.18739 5.15244 10.5176 5.34567C9.18701 5.53986 7.95432 6.16617 7.0042 7.13073C6.05408 8.0953 5.43769 9.34619 5.24739 10.696C5.05831 9.34953 4.44523 8.10115 3.49959 7.13697C2.55396 6.17279 1.32642 5.54446 0 5.34567C1.33018 5.15244 2.56276 4.52704 3.51294 3.56326C4.46311 2.59947 5.07967 1.34923 5.27018 0H5.24739Z"
                fill="#fff"
              />
              <path
                d="M27.0169 14.2244C26.2643 13.0576 25.1846 12.146 23.9168 11.6071C22.4075 10.9686 20.7829 10.6582 19.1481 10.6961H10.5088V32.0002H14.4113V25.9008V25.8591V22.5112V14.0441H18.9703C20.6708 14.0441 21.961 14.4048 22.8408 15.14C23.2852 15.5221 23.6357 16.004 23.8644 16.5474C24.0931 17.0909 24.1938 17.6809 24.1584 18.2707C24.1938 18.8612 24.0931 19.4519 23.8645 19.9961C23.6358 20.5403 23.2853 21.023 22.8408 21.4059C21.9625 22.1366 20.6723 22.5019 18.9703 22.5019H14.4113L16.9278 25.8499H19.1481C20.7808 25.882 22.4022 25.5669 23.9076 24.925C25.1787 24.3824 26.259 23.4639 27.0077 22.2892C27.7493 21.0812 28.1265 19.6795 28.0928 18.2568C28.13 16.835 27.756 15.4332 27.0169 14.2244Z"
                fill="#fff"
              />
            </svg>