<svg id="Layer_1" data-name="Layer 1" xmlns="http://www.w3.org/2000/svg" width="38" height="38" viewBox="0 0 151.26 151.24"><defs><style>.cls-1{fill:#2d2b22;}.cls-2{fill:#6c6b65;}.cls-3{fill:#d2924a;}.cls-4{fill:#4d361a;}.cls-5{fill:#826138;}</style></defs><path class="cls-1" d="M992.68,501.68l-3.43.46c-1.74-1.34-3.32-1.62-4.54.65-6.69-1-12.93,3.19-19.66,1.73-1.38-5-4.52-2-7.11-1.58-10.79.11-19.44-5.71-28.53-10.3-6.34-3.2-10.81-8.55-15.41-13.73-1.53-4.86-4.94-8.61-7.69-12.74-.56-.84-1,.43-1.3,1-2-5.4-4.55-10.6-6.6-16-3.06-8-2.88-16-3-24-.08-5.2-1-11.37,1.3-15.61s.94-9.9,5-13.36c4.88-3.2,6.68-8.28,8.19-13.52,2.82-1.79,5-4,5.94-7.38,5.39-7.38,13.32-11.34,21-15.68,2.14.29,4,0,5.23-2.12l1.64-.52c2.87,1.36,4.92,1,5.43-2.58l2.31-.22,5.34-.09c2.06-.45,5.15,1.67,5.78-2.32l14.07,0c0,1.9,1.1,2.47,2.78,2.38,1.47,1.79.46,3.75.24,5.57-1.28,10.59,2.26,19.16,10.89,25.33a19.36,19.36,0,0,0,9.44,4c2.75.27,5.56,1.77,5.34,5.59s3.37,6.18,3.56,9.82c2.22,3.7,4.52,7.3,9.65,7,1.65,3.06,4.79,2.35,7.41,2.94,2.47,2.29,4.88,2.63,7.21-.19,1.35-.42,3.14-.43,4-1.33,2.29-2.5,4-1.43,5.77.38.6,2.89-.75,6.6,3.35,8v11.43a1.72,1.72,0,0,0-1.54,1.26,30.25,30.25,0,0,0-1.72,13.23l-.24,1.63c-1,.18-2.51.08-2.33,1.45.46,3.41-2,6.12-1.95,9.38-1.49,3.8-5.19,6.48-5.48,10.93-.11,1.61-2,1.91-2.89,2.93-6.77,7.42-13.6,14.85-22.48,19.89a6,6,0,0,1-2.17.28c-4.81-.63-8.06,3.36-12.37,4.25C992.81,500.1,992.79,501.11,992.68,501.68Zm45-65c.8-.66.69-1.23-.18-1.72l.14-9c1.45-2.47-.23-2.65-2-2.64-3.93,0-7.85.1-11.78.15l-3.37-.16c-.86-2.92-3.19-2.71-5.49-2.57l-1.65-.13c.39-2.76-1.39-1.9-2.79-1.67-4-3.79-8.67-7.08-10.56-12.66-.07-.75-.09-1.53-1.07-1.72l-.39-2.42c.68-2,.39-3.58-2-3.76-1.6-.12-2.38-1.61-3.85-1.78-6.42-.06-9.7-4.88-13.48-8.93.19-2,.32-4-2.74-3.4-.21-.71-.43-1.42-.64-2.13A58.36,58.36,0,0,1,973,364.21c0-1.67-1.35-1.67-2.53-1.77l-6.29-.11c-2-1.4-4.21-.42-6.31-.62-2.39-.23-4.38.27-4.57,3.23l-2.54.45c-1.28-1.54-2.13-1.09-2.71.6-4.78,1.81-10.33,2.17-13.38,7.19-2-.24-3.84-.19-3.62,2.65l-1.6.23a12.59,12.59,0,0,0-9.23,8.58,45.87,45.87,0,0,0-11.16,19.52c-1,.45-2.45,0-2.84,1.66-1.38,5.8-4.15,11.38-2.63,17.61v11.34c-1.67,6.62,1.73,12.49,2.78,18.71.22,1.31,1.62.95,2.59,1.07l.33,2.43c-1.14,2.65.67,3,2.56,3.3l.69,3.25c-.53.26-1,.71-.51,1.21s.93,0,1.19-.52c.74.73,1.81,1.32,2.16,2.2,3.13,7.91,9.55,12.57,16.42,16.72a20.32,20.32,0,0,1,3,2.53c3.75,3.37,7.92,5.77,13.15,5.74.23,1.68.41,3.45,2.79,1.77l2.4.33c3,4,7,3.31,11,2.37,5,0,9.94.79,14.92.21,3.27.49,6.69,1.45,8.64-2.56l2.44-.12c2.86.7,5.42.74,6.35-2.85A75.74,75.74,0,0,0,1016,478.69c2.71.39,6.92-3.82,8.07-8.08,1.25-1.49.47-3.76,2.19-5.17,6.17-5,6.32-12.86,8.86-19.58,1.89-.11,2.48-1.21,2.45-3C1037.52,440.81,1037.64,438.73,1037.69,436.65Z" transform="translate(-895.19 -353.59)"/><path class="cls-2" d="M905,467.19c.28-.59.74-1.86,1.3-1,2.75,4.13,6.16,7.88,7.69,12.74-4.2-1.81-5.75-5.85-7.87-9.4C905.69,468.78,905.38,468,905,467.19Z" transform="translate(-895.19 -353.59)"/><path class="cls-2" d="M1042.94,449.31a30.25,30.25,0,0,1,1.72-13.23,1.72,1.72,0,0,1,1.54-1.26,26,26,0,0,1-1.56,13.37C1044.26,449.09,1043.6,449.09,1042.94,449.31Z" transform="translate(-895.19 -353.59)"/><path class="cls-2" d="M992.68,501.68c.11-.57.13-1.58.35-1.63,4.31-.89,7.56-4.88,12.37-4.25C1002.21,500,997.64,501.27,992.68,501.68Z" transform="translate(-895.19 -353.59)"/><path class="cls-2" d="M909.88,384.76c-1.51,5.24-3.31,10.32-8.19,13.52,1.14-4.63,3.56-8.62,6.28-12.46C908.23,384.81,909.09,384.85,909.88,384.76Z" transform="translate(-895.19 -353.59)"/><path class="cls-3" d="M909.88,384.76c-.79.09-1.65.05-1.91,1.06l-.84-.15c2.86-2.8,4.45-6.94,8.69-8.3C914.93,380.72,912.7,383,909.88,384.76Z" transform="translate(-895.19 -353.59)"/><path class="cls-2" d="M1018.49,413.55c-5.13.3-7.43-3.3-9.65-7,2.89-.71,3.79,2.07,5.57,3.27A34.88,34.88,0,0,1,1018.49,413.55Z" transform="translate(-895.19 -353.59)"/><path class="cls-2" d="M1038.42,461.77c0-3.26,2.41-6,1.95-9.38-.18-1.37,1.34-1.27,2.33-1.45C1042.92,455.2,1041.92,459,1038.42,461.77Z" transform="translate(-895.19 -353.59)"/><path class="cls-2" d="M1046.19,423.39c-4.1-1.44-2.75-5.15-3.35-8C1046.64,416.9,1045.88,420.37,1046.19,423.39Z" transform="translate(-895.19 -353.59)"/><path class="cls-2" d="M1033.11,416.3c-2.33,2.82-4.74,2.48-7.21.19C1028.24,414.21,1030.68,415.35,1033.11,416.3Z" transform="translate(-895.19 -353.59)"/><path class="cls-4" d="M957.94,502.94c2.59-.44,5.73-3.4,7.11,1.58C962.63,504.23,959.76,506,957.94,502.94Z" transform="translate(-895.19 -353.59)"/><path class="cls-2" d="M949.09,356.48c-.51,3.59-2.56,3.94-5.43,2.58C944.29,355.7,946.76,356.23,949.09,356.48Z" transform="translate(-895.19 -353.59)"/><path class="cls-3" d="M956.74,356.17l-5.34.09c.59-3.66,3.38-2.07,5.42-2.28C956.79,354.71,956.77,355.44,956.74,356.17Z" transform="translate(-895.19 -353.59)"/><path class="cls-2" d="M956.74,356.17c0-.73,0-1.46.08-2.19a13.21,13.21,0,0,1,5.7-.13C961.89,357.84,958.8,355.72,956.74,356.17Z" transform="translate(-895.19 -353.59)"/><path class="cls-2" d="M942,359.58c-1.19,2.08-3.09,2.41-5.23,2.12C938,359.61,939.61,358.65,942,359.58Z" transform="translate(-895.19 -353.59)"/><path class="cls-2" d="M984.71,502.79c1.22-2.27,2.8-2,4.54-.65C987.93,503.68,986.26,502.83,984.71,502.79Z" transform="translate(-895.19 -353.59)"/><path class="cls-2" d="M979.37,356.21c-1.68.09-2.8-.48-2.78-2.38C978.72,353.22,979.77,353.87,979.37,356.21Z" transform="translate(-895.19 -353.59)"/><path class="cls-3" d="M909.06,404.16a45.87,45.87,0,0,1,11.16-19.52,14.69,14.69,0,0,0,9.23-8.58l1.6-.23c1.94.13,3.68,0,3.62-2.65,3.05-5,8.6-5.38,13.38-7.19,1,.11,2,.46,2.71-.6l2.54-.45c3.74-.38,8.16,2.08,10.88-2.61l6.29.11c0,3.84-.22,7.7.13,11.51.31,3.47,1.78,6.55,5.26,8.14.21.71.43,1.42.64,2.13,0,1.91.35,3.46,2.74,3.4,3.78,4.05,7.06,8.87,13.48,8.93,1,2.87,3.24,4.38,5.84,5.54l.39,2.42c-1.16,1.52-.14,1.68,1.07,1.72,1.89,5.58,6.52,8.87,10.56,12.66.63,1.05,1.35,2,2.79,1.67l1.65.13c.72,3.25,3.13,2.85,5.49,2.57l3.37.16c.37,2,1.74,2.44,3.57,2.41,3.4-.05,6.8.05,10.2.08,0,3-.09,6-.14,9-.91.32-.86,1-.67,1.76-3.48,2.51-1.55,6-1.74,9.17-2.54,6.72-2.69,14.54-8.86,19.58-1.72,1.41-.94,3.68-2.19,5.17-4.37,1-5.57,5.2-8.07,8.08a75.74,75.74,0,0,1-19.45,11.87c-2.31.52-6-2.14-6.35,2.85l-2.44.12c-3.27-.47-6.61-1.16-8.64,2.56-5,.58-10-.2-14.92-.21-3.24-2.77-7.19-2.28-11-2.37l-2.4-.33a2.18,2.18,0,0,0-2.79-1.77c-5.23,0-9.4-2.37-13.15-5.74a20.32,20.32,0,0,0-3-2.53c-6.87-4.15-13.29-8.81-16.42-16.72-.35-.88-1.42-1.47-2.16-2.2l-.68-.69-.69-3.25c1-2.55-.66-3-2.56-3.3l-.33-2.43a2.27,2.27,0,0,0,.34-2.88c-3.63-4.22-3.19-9.33-3.33-14.3a2.4,2.4,0,0,0-2.38-2.6V423.43c1.16-.27,2.14-.54,2.36-2.1.71-5.11.57-10.42,3.4-15.08C909.63,405.78,909.17,404.87,909.06,404.16Zm44.73,47.54-.13-.11c-.4-3.07-2.94-2.82-5-3.13s-3.25.92-3.57,3a6.35,6.35,0,0,0-3.72,10.37c.87,1.09,2.51,1.7,2.3,3.51l-.18.32.19-.32,1.63.17c.13,2.08,1.38,2.49,3.25,2.51s3.1-.44,3.25-2.5l1.66-.17c4.5.33,3.53-2.83,3.47-5.42l-.09-5.17C957.46,452.06,955.73,451.77,953.79,451.7Zm-19.44-28.23c.62-3.19-1.44-2.83-3.41-2.58-4.74-.61-9.25-.55-12.2,4.13.06,2.52-3.7,5.86,1.55,7.28.24,1.45.17,2.49,2,3.65,4.45,2.77,7.73.19,11.41-1.12,1.19-.29,3.12.51,3.29-1.36a53.61,53.61,0,0,0,0-8.87c-.1-1.41-1.52-1.05-2.53-1ZM943.47,402c-.29,2.42.6,3.12,2.79,1.9h4.56c4.14.32,5.57-2.22,6.07-5.75,0-1.72,0-3.45,0-5.17-.58-3.41-2.37-5.5-6-5.53-4.79-.84-8.3,1-10.17,5.39C939.11,396.5,940,399.73,943.47,402Zm70.76,48.13c.86-1.63,3.45-1.65,3.5-4.23.06-3.59-6.5-10.41-10.11-10.12a4.49,4.49,0,0,0-2.36.84,18.22,18.22,0,0,0-5.53,7.2c-.59,1.2,1.26,3.59,2,5.44-.77,2.8,2.2,3.3,3.35,4.59C1007.47,456.54,1013.63,453.79,1014.23,450.12Zm-37.51-14.29c4.48-1.14,4.76-4.87,4.68-8.36-.07-3.06-1.24-5.91-4.78-6.8,0-1.39-.16-2.88-2-2.62s-4.32-1.42-5,1.83c-6.19,4-6.6,11.15-.93,15.92C971.35,438.28,974,439,976.72,435.83Zm-3,34.09c-.07,4.66,3.91,9,8.24,9.05,3.66,0,8.18-4.56,8.18-8.28,0-3.4-4.83-8-8.49-8.11C976.28,462.45,973.82,464.73,973.73,469.92Z" transform="translate(-895.19 -353.59)"/><path class="cls-5" d="M975.86,382.09c-3.48-1.59-5-4.67-5.26-8.14-.35-3.81-.12-7.67-.13-11.51,1.18.1,2.5.1,2.53,1.77A58.36,58.36,0,0,0,975.86,382.09Z" transform="translate(-895.19 -353.59)"/><path class="cls-5" d="M909.06,404.16c.11.71.57,1.62.29,2.09-2.83,4.66-2.69,10-3.4,15.08-.22,1.56-1.2,1.83-2.36,2.1-1.52-6.23,1.25-11.81,2.63-17.61C906.61,404.2,908.06,404.61,909.06,404.16Z" transform="translate(-895.19 -353.59)"/><path class="cls-5" d="M903.59,434.77a2.4,2.4,0,0,1,2.38,2.6c.14,5-.3,10.08,3.33,14.3a2.27,2.27,0,0,1-.34,2.88c-1-.12-2.37.24-2.59-1.07C905.32,447.26,901.92,441.39,903.59,434.77Z" transform="translate(-895.19 -353.59)"/><path class="cls-4" d="M1037.65,425.91c-3.4,0-6.8-.13-10.2-.08-1.83,0-3.2-.39-3.57-2.41,3.93-.05,7.85-.14,11.78-.15C1037.42,423.26,1039.1,423.44,1037.65,425.91Z" transform="translate(-895.19 -353.59)"/><path class="cls-5" d="M964.18,362.33c-2.72,4.69-7.14,2.23-10.88,2.61.19-3,2.18-3.46,4.57-3.23C960,361.91,962.2,360.93,964.18,362.33Z" transform="translate(-895.19 -353.59)"/><path class="cls-5" d="M929.45,376.06a14.69,14.69,0,0,1-9.23,8.58A12.59,12.59,0,0,1,929.45,376.06Z" transform="translate(-895.19 -353.59)"/><path class="cls-5" d="M953.17,493.51c3.82.09,7.77-.4,11,2.37C960.14,496.82,956.15,497.53,953.17,493.51Z" transform="translate(-895.19 -353.59)"/><path class="cls-4" d="M1016,478.69c2.5-2.88,3.7-7.07,8.07-8.08C1022.9,474.87,1018.69,479.08,1016,478.69Z" transform="translate(-895.19 -353.59)"/><path class="cls-5" d="M979.1,496.09c2-3.72,5.37-3,8.64-2.56C985.79,497.54,982.37,496.58,979.1,496.09Z" transform="translate(-895.19 -353.59)"/><path class="cls-5" d="M1035.1,445.86c.19-3.13-1.74-6.66,1.74-9.17.28,0,.56,0,.85,0,0,2.08-.17,4.16-.14,6.24C1037.58,444.65,1037,445.75,1035.1,445.86Z" transform="translate(-895.19 -353.59)"/><path class="cls-5" d="M990.18,493.41c.31-5,4-2.33,6.35-2.85C995.6,494.15,993,494.11,990.18,493.41Z" transform="translate(-895.19 -353.59)"/><path class="cls-5" d="M998.56,402.09c-2.6-1.16-4.86-2.67-5.84-5.54,1.47.17,2.25,1.66,3.85,1.78C999,398.51,999.24,400.12,998.56,402.09Z" transform="translate(-895.19 -353.59)"/><path class="cls-4" d="M1020.51,423.26c-2.36.28-4.77.68-5.49-2.57C1017.32,420.55,1019.65,420.34,1020.51,423.26Z" transform="translate(-895.19 -353.59)"/><path class="cls-5" d="M934.67,373.18c.06,2.62-1.68,2.78-3.62,2.65C930.83,373,932.64,372.94,934.67,373.18Z" transform="translate(-895.19 -353.59)"/><path class="cls-5" d="M909.29,457c1.9.28,3.57.75,2.56,3.3C910,460,908.15,459.63,909.29,457Z" transform="translate(-895.19 -353.59)"/><path class="cls-5" d="M979.24,387.62c-2.39.06-2.78-1.49-2.74-3.4C979.56,383.62,979.43,385.59,979.24,387.62Z" transform="translate(-895.19 -353.59)"/><path class="cls-5" d="M948,491.41a2.18,2.18,0,0,1,2.79,1.77C948.39,494.86,948.21,493.09,948,491.41Z" transform="translate(-895.19 -353.59)"/><path class="cls-5" d="M950.76,365.39c-.71,1.06-1.74.71-2.71.6C948.63,364.3,949.48,363.85,950.76,365.39Z" transform="translate(-895.19 -353.59)"/><path class="cls-4" d="M1013.37,420.56c-1.44.29-2.16-.62-2.79-1.67C1012,418.66,1013.76,417.8,1013.37,420.56Z" transform="translate(-895.19 -353.59)"/><path class="cls-4" d="M1037.69,436.65c-.29,0-.57,0-.85,0-.19-.75-.24-1.44.67-1.76C1038.38,435.42,1038.49,436,1037.69,436.65Z" transform="translate(-895.19 -353.59)"/><path class="cls-5" d="M912.54,463.53l.68.69c-.26.5-.66,1-1.19.52S912,463.79,912.54,463.53Z" transform="translate(-895.19 -353.59)"/><path class="cls-5" d="M1000,406.23c-1.21,0-2.23-.2-1.07-1.72C999.93,404.7,1000,405.48,1000,406.23Z" transform="translate(-895.19 -353.59)"/><path class="cls-4" d="M968.67,435.8c-5.67-4.77-5.26-11.89.93-15.93,2.19,1.63,4.69.43,7,.8,3.54.89,4.71,3.74,4.78,6.8.08,3.49-.2,7.22-4.68,8.36A8.4,8.4,0,0,0,968.67,435.8Z" transform="translate(-895.19 -353.59)"/><path class="cls-4" d="M933.74,434.83c-3.68,1.31-7,3.89-11.41,1.12-1.87-1.16-1.8-2.2-2-3.65-.24-2.48,1.26-5.34-1.55-7.28,3-4.68,7.46-4.74,12.2-4.13,0,2.39,1.6,2.61,3.41,2.58l.14.15C934.4,427.37,935.42,431.19,933.74,434.83Z" transform="translate(-895.19 -353.59)"/><path class="cls-4" d="M973.73,469.92c.09-5.19,2.55-7.47,7.93-7.34,3.66.09,8.5,4.71,8.49,8.11,0,3.72-4.52,8.29-8.18,8.28C977.64,479,973.66,474.58,973.73,469.92Z" transform="translate(-895.19 -353.59)"/><path class="cls-4" d="M1001.73,449.25c-.74-1.85-2.59-4.24-2-5.44a18.22,18.22,0,0,1,5.53-7.2,4.49,4.49,0,0,1,2.36-.84c3.61-.29,10.17,6.53,10.11,10.12-.05,2.58-2.64,2.6-3.5,4.23C1009.91,452,1005.79,451.11,1001.73,449.25Z" transform="translate(-895.19 -353.59)"/><path class="cls-4" d="M950.82,403.9h-4.56c0-1.95-1.34-2-2.79-1.9-3.51-2.26-4.36-5.49-2.81-9.15,1.87-4.41,5.38-6.23,10.17-5.39.94,3,2.65,5.18,6,5.53,0,1.72,0,3.45,0,5.17C953.41,398.54,951.51,400.57,950.82,403.9Z" transform="translate(-895.19 -353.59)"/><path class="cls-4" d="M956.83,454.72l.09,5.17c-3.34.41-3.07,3.13-3.47,5.42l-1.66.17h-6.5l-1.63-.17h0c.21-1.81-1.43-2.42-2.3-3.51a6.35,6.35,0,0,1,3.72-10.37,25.54,25.54,0,0,0,8.59.17l.13.11C953,454.58,955,454.57,956.83,454.72Z" transform="translate(-895.19 -353.59)"/><path class="cls-5" d="M1001.73,449.25c4.06,1.86,8.18,2.71,12.5.87-.6,3.67-6.76,6.42-9.15,3.72C1003.93,452.55,1001,452.05,1001.73,449.25Z" transform="translate(-895.19 -353.59)"/><path class="cls-5" d="M933.74,434.83c1.68-3.64.66-7.46.75-11.21,1-.07,2.43-.43,2.53,1a53.61,53.61,0,0,1,0,8.87C936.86,435.34,934.93,434.54,933.74,434.83Z" transform="translate(-895.19 -353.59)"/><path class="cls-5" d="M953.66,451.59a25.54,25.54,0,0,1-8.59-.17c.32-2,1.4-3.29,3.57-3S953.26,448.52,953.66,451.59Z" transform="translate(-895.19 -353.59)"/><path class="cls-5" d="M950.82,403.9c.69-3.33,2.59-5.36,6.07-5.75C956.39,401.68,955,404.22,950.82,403.9Z" transform="translate(-895.19 -353.59)"/><path class="cls-5" d="M976.62,420.67c-2.33-.37-4.83.83-7-.8.67-3.24,3.24-1.57,5-1.82S976.6,419.28,976.62,420.67Z" transform="translate(-895.19 -353.59)"/><path class="cls-5" d="M956.87,393c-3.39-.35-5.1-2.52-6-5.53C954.5,387.48,956.29,389.57,956.87,393Z" transform="translate(-895.19 -353.59)"/><path class="cls-5" d="M968.67,435.8a8.4,8.4,0,0,1,8.05,0C974,439,971.35,438.28,968.67,435.8Z" transform="translate(-895.19 -353.59)"/><path class="cls-5" d="M918.74,425c2.81,1.94,1.31,4.8,1.55,7.28C915,430.88,918.8,427.54,918.74,425Z" transform="translate(-895.19 -353.59)"/><path class="cls-5" d="M953.45,465.31c.4-2.29.13-5,3.47-5.42C957,462.48,958,465.64,953.45,465.31Z" transform="translate(-895.19 -353.59)"/><path class="cls-5" d="M945.29,465.47h6.5c-.15,2.06-1.37,2.51-3.25,2.5S945.42,467.55,945.29,465.47Z" transform="translate(-895.19 -353.59)"/><path class="cls-5" d="M956.83,454.72c-1.86-.15-3.88-.14-3-3C955.73,451.77,957.46,452.06,956.83,454.72Z" transform="translate(-895.19 -353.59)"/><path class="cls-5" d="M934.35,423.47c-1.81,0-3.43-.19-3.41-2.58C932.91,420.64,935,420.28,934.35,423.47Z" transform="translate(-895.19 -353.59)"/><path class="cls-5" d="M943.47,402c1.45-.13,2.76-.05,2.79,1.9C944.07,405.11,943.18,404.41,943.47,402Z" transform="translate(-895.19 -353.59)"/><path class="cls-5" d="M943.66,465.3l-.19.32.18-.32Z" transform="translate(-895.19 -353.59)"/></svg>