<svg width="22" height="23" viewBox="0 0 22 23" fill="none" xmlns="http://www.w3.org/2000/svg">
<path opacity="0.8" d="M11.6913 22.2837C11.5213 22.2837 11.3513 22.2837 11.1813 22.2737C5.58127 22.0237 0.901271 17.5137 0.511271 12.0137C0.171271 7.29374 2.90127 2.88374 7.30127 1.03374C8.55127 0.513745 9.21127 0.913745 9.49127 1.20374C9.77127 1.48374 10.1613 2.13374 9.64127 3.32374C9.1817 4.38022 8.95 5.5217 8.96127 6.67374C8.98127 11.1037 12.6613 14.8637 17.1513 15.0437C17.8013 15.0737 18.4413 15.0237 19.0613 14.9137C20.3813 14.6737 20.9313 15.2037 21.1413 15.5437C21.3513 15.8837 21.5913 16.6137 20.7913 17.6937C18.6713 20.5937 15.3013 22.2837 11.6913 22.2837ZM2.00127 11.9037C2.34127 16.6637 6.40127 20.5637 11.2413 20.7737C14.5313 20.9337 17.6513 19.4337 19.5713 16.8137C19.7213 16.6037 19.7913 16.4537 19.8213 16.3737C19.7313 16.3637 19.5713 16.3537 19.3213 16.4037C18.5913 16.5337 17.8313 16.5837 17.0813 16.5537C11.8013 16.3437 7.48127 11.9137 7.45127 6.69374C7.45127 5.31374 7.72127 3.98374 8.27127 2.73374C8.37127 2.51374 8.39127 2.36374 8.40127 2.28374C8.31127 2.28374 8.15127 2.30374 7.89127 2.41374C4.08127 4.01374 1.72127 7.83374 2.00127 11.9037Z" fill="#A1A2AF"/>
</svg>
