<svg width="23" height="22" viewBox="0 0 23 22" fill="none" xmlns="http://www.w3.org/2000/svg">
<path d="M11.4174 21.6997C5.48736 21.6997 0.667358 16.8797 0.667358 10.9497C0.667358 5.01971 5.48736 0.199707 11.4174 0.199707C17.3474 0.199707 22.1674 5.01971 22.1674 10.9497C22.1674 16.8797 17.3474 21.6997 11.4174 21.6997ZM11.4174 1.69971C6.31736 1.69971 2.16736 5.84971 2.16736 10.9497C2.16736 16.0497 6.31736 20.1997 11.4174 20.1997C16.5174 20.1997 20.6674 16.0497 20.6674 10.9497C20.6674 5.84971 16.5174 1.69971 11.4174 1.69971Z" fill="#6F7181"/>
<path d="M11.4181 16.3388C11.2406 16.3388 11.0716 16.3135 10.928 16.2628C9.11117 15.6459 6.22961 13.4319 6.22961 10.1363C6.22961 8.37862 7.64926 6.95052 9.39848 6.95052C10.159 6.95052 10.8604 7.21248 11.4265 7.6857C11.9927 7.21248 12.7025 6.95052 13.4462 6.95052C15.1954 6.95052 16.615 8.37862 16.615 10.1363C16.615 13.4235 13.7335 15.6374 11.9082 16.2628C11.7646 16.3135 11.5871 16.3388 11.4181 16.3388ZM9.39003 8.22652C8.34219 8.22652 7.48871 9.08845 7.48871 10.1447C7.48871 13.0939 10.3365 14.7332 11.3336 15.0713C11.3674 15.0797 11.4519 15.0797 11.4857 15.0713C12.4828 14.7332 15.3306 13.0939 15.3306 10.1447C15.3306 9.08845 14.4771 8.22652 13.4293 8.22652C12.8377 8.22652 12.2716 8.51383 11.9167 8.9955C11.6801 9.31661 11.1392 9.31661 10.9026 8.9955C10.7306 8.75546 10.5034 8.56031 10.2401 8.42648C9.97689 8.29265 9.68533 8.22407 9.39003 8.22652Z" fill="#6F7181"/>
</svg>
