<svg width="20" height="20" viewBox="0 0 20 20" fill="none" xmlns="http://www.w3.org/2000/svg">
<path d="M15.525 5.95833C15.5583 6.46666 15.5167 7.04166 15.4167 7.68333L14.8083 11.5917C14.2917 14.85 12.7833 15.95 9.52501 15.4417L5.61668 14.825C4.49168 14.65 3.62501 14.35 2.99168 13.9C1.78335 13.0583 1.43335 11.675 1.76668 9.54166L2.38335 5.63333C2.90001 2.375 4.40835 1.275 7.66668 1.78333L11.575 2.4C14.1917 2.80833 15.4167 3.875 15.525 5.95833Z" stroke="#3A3A3C" stroke-width="1.5" stroke-linecap="round" stroke-linejoin="round"/>
<path d="M17.0833 11.225L15.8333 14.9833C14.7917 18.1166 13.125 18.95 9.99167 17.9083L6.23334 16.6583C4.34167 16.0333 3.29167 15.1666 2.99167 13.9C3.625 14.35 4.49167 14.65 5.61667 14.825L9.525 15.4416C12.7833 15.95 14.2917 14.85 14.8083 11.5916L15.4167 7.68331C15.5167 7.04165 15.5583 6.46665 15.525 5.95831C17.5167 7.01665 17.95 8.61665 17.0833 11.225Z" stroke="#3A3A3C" stroke-width="1.5" stroke-linecap="round" stroke-linejoin="round"/>
<path d="M6.86666 7.48331C7.66747 7.48331 8.31666 6.83413 8.31666 6.03331C8.31666 5.2325 7.66747 4.58331 6.86666 4.58331C6.06584 4.58331 5.41666 5.2325 5.41666 6.03331C5.41666 6.83413 6.06584 7.48331 6.86666 7.48331Z" stroke="#3A3A3C" stroke-width="1.5" stroke-linecap="round" stroke-linejoin="round"/>
</svg>
