<svg width="57" height="65" viewBox="0 0 57 65" fill="none" xmlns="http://www.w3.org/2000/svg">
<path d="M10.6461 0C11.0326 2.73736 12.2835 5.27389 14.2112 7.22925C16.139 9.18461 18.6397 10.4534 21.3384 10.8455C18.6389 11.2394 16.138 12.5101 14.2103 14.4671C12.2827 16.424 11.0322 18.9618 10.6461 21.7003C10.2625 18.9686 9.01862 16.4359 7.10009 14.4797C5.18155 12.5236 2.69108 11.2488 0 10.8455C2.69871 10.4534 5.19941 9.18461 7.12716 7.22925C9.0549 5.27389 10.3058 2.73736 10.6923 0H10.6461Z" fill="black"/>
<path d="M54.8119 28.8586C53.2851 26.4913 51.0945 24.6418 48.5223 23.5484C45.4602 22.2529 42.1643 21.6233 38.8474 21.7002H21.3198V64.9226H29.2373V52.5479V52.4634V45.6709V28.4927H38.4867C41.9367 28.4927 44.5543 29.2245 46.3395 30.7162C47.2411 31.4913 47.9521 32.469 48.4161 33.5715C48.8801 34.6741 49.0843 35.8712 49.0125 37.0678C49.0843 38.2657 48.8802 39.4642 48.4162 40.5683C47.9522 41.6723 47.2412 42.6516 46.3395 43.4287C44.5574 44.911 41.9398 45.6522 38.4867 45.6522H29.2373L34.343 52.4447H38.8474C42.1601 52.5098 45.4494 51.8706 48.5038 50.5683C51.0825 49.4674 53.2743 47.6038 54.7934 45.2206C56.298 42.7697 57.0631 39.926 56.9948 37.0396C57.0703 34.1549 56.3115 31.3109 54.8119 28.8586Z" fill="black"/>
</svg>
