<svg width="20" height="20" viewBox="0 0 20 20" fill="none" xmlns="http://www.w3.org/2000/svg">
<path d="M18.3333 5.20835V9.45833C18.3333 10.5167 17.9833 11.4083 17.3583 12.025C16.7417 12.65 15.85 13 14.7917 13V14.5083C14.7917 15.075 14.1583 15.4167 13.6917 15.1L12.8833 14.5667C12.9583 14.3083 12.9917 14.025 12.9917 13.725V10.3334C12.9917 8.63337 11.8583 7.50002 10.1583 7.50002H4.49998C4.38332 7.50002 4.27499 7.50837 4.16666 7.5167V5.20835C4.16666 3.08335 5.58332 1.66669 7.70832 1.66669H14.7917C16.9167 1.66669 18.3333 3.08335 18.3333 5.20835Z" stroke="#3A3A3C" stroke-width="1.5" stroke-miterlimit="10" stroke-linecap="round" stroke-linejoin="round"/>
<path d="M12.9917 10.3334V13.725C12.9917 14.025 12.9583 14.3083 12.8833 14.5667C12.575 15.7917 11.5583 16.5583 10.1583 16.5583H7.89166L5.37499 18.2333C4.99999 18.4917 4.49998 18.2167 4.49998 17.7667V16.5583C3.64998 16.5583 2.94166 16.275 2.44999 15.7833C1.94999 15.2833 1.66666 14.575 1.66666 13.725V10.3334C1.66666 8.75002 2.64999 7.65835 4.16666 7.51668C4.27499 7.50835 4.38332 7.5 4.49998 7.5H10.1583C11.8583 7.5 12.9917 8.63335 12.9917 10.3334Z" stroke="#3A3A3C" stroke-width="1.5" stroke-miterlimit="10" stroke-linecap="round" stroke-linejoin="round"/>
</svg>
