<svg width="30" height="30" viewBox="0 0 30 30" fill="none" xmlns="http://www.w3.org/2000/svg">
<rect width="30" height="30" rx="15" fill="#F2F2F7" fill-opacity="0.5"/>
<path d="M22.5 10.6875V14.5125C22.5 15.465 22.185 16.2675 21.6225 16.8225C21.0675 17.385 20.265 17.7 19.3125 17.7V19.0575C19.3125 19.5675 18.7425 19.875 18.3225 19.59L17.595 19.11C17.6625 18.8775 17.6925 18.6225 17.6925 18.3525V15.3C17.6925 13.77 16.6725 12.75 15.1425 12.75H10.05C9.945 12.75 9.8475 12.7575 9.75 12.765V10.6875C9.75 8.775 11.025 7.5 12.9375 7.5H19.3125C21.225 7.5 22.5 8.775 22.5 10.6875Z" stroke="#8E8E93" stroke-width="1.2" stroke-miterlimit="10" stroke-linecap="round" stroke-linejoin="round"/>
<path d="M17.6925 15.3V18.3525C17.6925 18.6225 17.6625 18.8775 17.595 19.11C17.3175 20.2125 16.4025 20.9025 15.1425 20.9025H13.1025L10.8375 22.41C10.5 22.6425 10.05 22.395 10.05 21.99V20.9025C9.285 20.9025 8.6475 20.6475 8.205 20.205C7.755 19.755 7.5 19.1175 7.5 18.3525V15.3C7.5 13.875 8.385 12.8925 9.75 12.765C9.8475 12.7575 9.945 12.75 10.05 12.75H15.1425C16.6725 12.75 17.6925 13.77 17.6925 15.3Z" stroke="#8E8E93" stroke-width="1.2" stroke-miterlimit="10" stroke-linecap="round" stroke-linejoin="round"/>
</svg>
