<svg width="21" height="21" viewBox="0 0 21 21" fill="none" xmlns="http://www.w3.org/2000/svg">
<path d="M5.65736 0.949951H3.75736C1.56736 0.949951 0.417358 2.09995 0.417358 4.27995V6.17995C0.417358 8.35995 1.56736 9.50995 3.74736 9.50995H5.64736C7.82736 9.50995 8.97736 8.35995 8.97736 6.17995V4.27995C8.98736 2.09995 7.83736 0.949951 5.65736 0.949951Z" fill="#1E1E2D"/>
<path opacity="0.6" d="M17.0873 0.949951H15.1873C13.0073 0.949951 11.8573 2.09995 11.8573 4.27995V6.17995C11.8573 8.35995 13.0073 9.50995 15.1873 9.50995H17.0873C19.2673 9.50995 20.4173 8.35995 20.4173 6.17995V4.27995C20.4173 2.09995 19.2673 0.949951 17.0873 0.949951Z" fill="#1E1E2D"/>
<path d="M17.0873 12.3799H15.1873C13.0073 12.3799 11.8573 13.5299 11.8573 15.7099V17.6099C11.8573 19.7899 13.0073 20.9399 15.1873 20.9399H17.0873C19.2673 20.9399 20.4173 19.7899 20.4173 17.6099V15.7099C20.4173 13.5299 19.2673 12.3799 17.0873 12.3799V12.3799Z" fill="#1E1E2D"/>
<path opacity="0.6" d="M5.65736 12.3799H3.75736C1.56736 12.3799 0.417358 13.5299 0.417358 15.7099V17.6099C0.417358 19.7999 1.56736 20.9499 3.74736 20.9499H5.64736C7.82736 20.9499 8.97736 19.7999 8.97736 17.6199V15.7199C8.98736 13.5299 7.83736 12.3799 5.65736 12.3799V12.3799Z" fill="#1E1E2D"/>
</svg>
