<svg width="23" height="22" viewBox="0 0 23 22" fill="none" xmlns="http://www.w3.org/2000/svg">
<path d="M11.4174 21.8447C5.48736 21.8447 0.667358 17.0247 0.667358 11.0947C0.667358 8.73473 1.41736 6.49473 2.83736 4.61473C3.08736 4.28473 3.55736 4.22473 3.88736 4.47473C4.21736 4.72473 4.28736 5.19473 4.03736 5.52473C2.81932 7.12569 2.16216 9.08309 2.16736 11.0947C2.16736 16.1947 6.31736 20.3447 11.4174 20.3447C16.5174 20.3447 20.6674 16.1947 20.6674 11.0947C20.6674 5.99473 16.5174 1.84473 11.4174 1.84473C11.0074 1.84473 10.6674 1.50473 10.6674 1.09473C10.6674 0.684727 11.0074 0.344727 11.4174 0.344727C17.3474 0.344727 22.1674 5.16473 22.1674 11.0947C22.1674 17.0247 17.3474 21.8447 11.4174 21.8447Z" fill="#6F7181"/>
<path d="M11.4174 18.8447C7.14736 18.8447 3.66736 15.3647 3.66736 11.0947C3.66736 10.6847 4.00736 10.3447 4.41736 10.3447C4.82736 10.3447 5.16736 10.6847 5.16736 11.0947C5.16736 14.5447 7.96736 17.3447 11.4174 17.3447C14.8674 17.3447 17.6674 14.5447 17.6674 11.0947C17.6674 7.64473 14.8674 4.84473 11.4174 4.84473C11.0074 4.84473 10.6674 4.50473 10.6674 4.09473C10.6674 3.68473 11.0074 3.34473 11.4174 3.34473C15.6874 3.34473 19.1674 6.82473 19.1674 11.0947C19.1674 15.3647 15.6874 18.8447 11.4174 18.8447Z" fill="#6F7181"/>
<path d="M11.4174 15.8447C11.0074 15.8447 10.6674 15.5047 10.6674 15.0947C10.6674 14.6847 11.0074 14.3447 11.4174 14.3447C13.2074 14.3447 14.6674 12.8847 14.6674 11.0947C14.6674 9.30473 13.2074 7.84473 11.4174 7.84473C11.0074 7.84473 10.6674 7.50473 10.6674 7.09473C10.6674 6.68473 11.0074 6.34473 11.4174 6.34473C14.0374 6.34473 16.1674 8.47473 16.1674 11.0947C16.1674 13.7147 14.0374 15.8447 11.4174 15.8447Z" fill="#6F7181"/>
</svg>
