<svg width="21" height="22" viewBox="0 0 21 22" fill="none" xmlns="http://www.w3.org/2000/svg">
<path d="M13.6573 21.3647H13.5273C9.08732 21.3647 6.94732 19.6147 6.57732 15.6947C6.53732 15.2847 6.83732 14.9147 7.25732 14.8747C7.65732 14.8347 8.03732 15.1447 8.07732 15.5547C8.36732 18.6947 9.84732 19.8647 13.5373 19.8647H13.6673C17.7373 19.8647 19.1773 18.4247 19.1773 14.3547V7.83471C19.1773 3.76471 17.7373 2.32471 13.6673 2.32471H13.5373C9.82732 2.32471 8.34732 3.51471 8.07732 6.71471C8.02732 7.12471 7.67732 7.43471 7.25732 7.39471C7.15877 7.38701 7.0627 7.35992 6.97463 7.31501C6.88657 7.2701 6.80823 7.20824 6.74413 7.13299C6.68002 7.05773 6.6314 6.97056 6.60106 6.87647C6.57072 6.78239 6.55926 6.68324 6.56732 6.58471C6.90732 2.60471 9.05732 0.824707 13.5273 0.824707H13.6573C18.5673 0.824707 20.6673 2.92471 20.6673 7.83471V14.3547C20.6673 19.2647 18.5673 21.3647 13.6573 21.3647Z" fill="#FB6B63"/>
<path d="M13.4174 11.8447H2.03735C1.62735 11.8447 1.28735 11.5047 1.28735 11.0947C1.28735 10.6847 1.62735 10.3447 2.03735 10.3447H13.4174C13.8274 10.3447 14.1674 10.6847 14.1674 11.0947C14.1674 11.5047 13.8274 11.8447 13.4174 11.8447Z" fill="#FB6B63"/>
<path d="M4.26738 15.1947C4.07738 15.1947 3.88738 15.1247 3.73738 14.9747L0.387379 11.6247C0.247899 11.4836 0.169678 11.2931 0.169678 11.0947C0.169678 10.8963 0.247899 10.7058 0.387379 10.5647L3.73738 7.21469C4.02738 6.92469 4.50738 6.92469 4.79738 7.21469C5.08738 7.50469 5.08738 7.98469 4.79738 8.27469L1.97738 11.0947L4.79738 13.9147C5.08738 14.2047 5.08738 14.6847 4.79738 14.9747C4.65738 15.1247 4.45738 15.1947 4.26738 15.1947Z" fill="#FB6B63"/>
</svg>
