<svg width="22" height="22" viewBox="0 0 22 22" fill="none" xmlns="http://www.w3.org/2000/svg">
<path d="M14.1174 21.6997H8.71737C3.77737 21.6997 1.67737 19.5897 1.67737 14.6597V10.1697C1.67737 9.75971 2.01737 9.41971 2.42737 9.41971C2.83737 9.41971 3.17737 9.75971 3.17737 10.1697V14.6597C3.17737 18.7497 4.62737 20.1997 8.71737 20.1997H14.1074C18.1974 20.1997 19.6474 18.7497 19.6474 14.6597V10.1697C19.6474 9.75971 19.9874 9.41971 20.3974 9.41971C20.8074 9.41971 21.1474 9.75971 21.1474 10.1697V14.6597C21.1574 19.5897 19.0474 21.6997 14.1174 21.6997Z" fill="#6F7181"/>
<path d="M11.4164 11.6997C10.3164 11.6997 9.31638 11.2697 8.60638 10.4797C7.89638 9.68971 7.56638 8.65971 7.67638 7.55971L8.34638 0.879707C8.38638 0.499707 8.70638 0.199707 9.09638 0.199707H13.7664C14.1564 0.199707 14.4764 0.489707 14.5164 0.879707L15.1864 7.55971C15.2964 8.65971 14.9664 9.68971 14.2564 10.4797C13.5164 11.2697 12.5164 11.6997 11.4164 11.6997ZM9.76638 1.69971L9.16638 7.70971C9.09638 8.37971 9.29638 9.00971 9.71638 9.46971C10.5664 10.4097 12.2664 10.4097 13.1164 9.46971C13.5364 8.99971 13.7364 8.36971 13.6664 7.70971L13.0664 1.69971H9.76638Z" fill="#6F7181"/>
<path d="M17.7274 11.6997C15.6974 11.6997 13.8874 10.0597 13.6774 8.03971L12.9774 1.02971C12.9574 0.819707 13.0274 0.609707 13.1674 0.449707C13.3074 0.289707 13.5074 0.199707 13.7274 0.199707H16.7774C19.7174 0.199707 21.0874 1.42971 21.4974 4.44971L21.7774 7.22971C21.8974 8.40971 21.5374 9.52971 20.7674 10.3797C19.9974 11.2297 18.9174 11.6997 17.7274 11.6997ZM14.5574 1.69971L15.1774 7.88971C15.3074 9.13971 16.4674 10.1997 17.7274 10.1997C18.4874 10.1997 19.1674 9.90971 19.6574 9.37971C20.1374 8.84971 20.3574 8.13971 20.2874 7.37971L20.0074 4.62971C19.6974 2.36971 18.9674 1.69971 16.7774 1.69971H14.5574Z" fill="#6F7181"/>
<path d="M5.0564 11.6997C3.8664 11.6997 2.7864 11.2297 2.0164 10.3797C1.2464 9.52971 0.886403 8.40971 1.0064 7.22971L1.2764 4.47971C1.6964 1.42971 3.0664 0.199707 6.0064 0.199707H9.0564C9.2664 0.199707 9.4664 0.289707 9.6164 0.449707C9.7664 0.609707 9.8264 0.819707 9.8064 1.02971L9.1064 8.03971C8.8964 10.0597 7.0864 11.6997 5.0564 11.6997ZM6.0064 1.69971C3.8164 1.69971 3.0864 2.35971 2.7664 4.64971L2.4964 7.37971C2.4164 8.13971 2.6464 8.84971 3.1264 9.37971C3.6064 9.90971 4.2864 10.1997 5.0564 10.1997C6.3164 10.1997 7.4864 9.13971 7.6064 7.88971L8.2264 1.69971H6.0064Z" fill="#6F7181"/>
<path d="M13.9174 21.6997H8.91736C8.50736 21.6997 8.16736 21.3597 8.16736 20.9497V18.4497C8.16736 16.3497 9.31736 15.1997 11.4174 15.1997C13.5174 15.1997 14.6674 16.3497 14.6674 18.4497V20.9497C14.6674 21.3597 14.3274 21.6997 13.9174 21.6997ZM9.66736 20.1997H13.1674V18.4497C13.1674 17.1897 12.6774 16.6997 11.4174 16.6997C10.1574 16.6997 9.66736 17.1897 9.66736 18.4497V20.1997Z" fill="#6F7181"/>
</svg>
