<svg width="30" height="30" viewBox="0 0 30 30" fill="none" xmlns="http://www.w3.org/2000/svg">
<rect width="30" height="30" rx="15" fill="#ffff" fill-opacity="0.2"/>
<path d="M15.0149 8.1825C12.5324 8.1825 10.5149 10.2 10.5149 12.6825V14.85C10.5149 15.3075 10.3199 16.005 10.0874 16.395L9.22494 17.8275C8.69244 18.7125 9.05994 19.695 10.0349 20.025C13.2674 21.105 16.7549 21.105 19.9874 20.025C20.8949 19.725 21.2924 18.6525 20.7974 17.8275L19.9349 16.395C19.7099 16.005 19.5149 15.3075 19.5149 14.85V12.6825C19.5149 10.2075 17.4899 8.1825 15.0149 8.1825Z" stroke="#fff" stroke-width="1.2" stroke-miterlimit="10" stroke-linecap="round"/>
<path d="M16.4024 8.4C16.1699 8.3325 15.9299 8.28 15.6824 8.25C14.9624 8.16 14.2724 8.2125 13.6274 8.4C13.8449 7.845 14.3849 7.455 15.0149 7.455C15.6449 7.455 16.1849 7.845 16.4024 8.4Z" stroke="#fff" stroke-width="1.2" stroke-miterlimit="10" stroke-linecap="round" stroke-linejoin="round"/>
<path d="M17.2649 20.295C17.2649 21.5325 16.2524 22.545 15.0149 22.545C14.3999 22.545 13.8299 22.29 13.4249 21.885C13.0199 21.48 12.7649 20.91 12.7649 20.295" stroke="#fff" stroke-width="1.2" stroke-miterlimit="10"/>
<circle cx="19.5" cy="9.5" r="3" fill="#FF2D55" stroke="#ffff"/>
</svg>
