<svg width="23" height="23" viewBox="0 0 23 23" fill="none" xmlns="http://www.w3.org/2000/svg">
<path d="M6.41736 4.84473C6.00736 4.84473 5.66736 4.50473 5.66736 4.09473V1.09473C5.66736 0.684727 6.00736 0.344727 6.41736 0.344727C6.82736 0.344727 7.16736 0.684727 7.16736 1.09473V4.09473C7.16736 4.50473 6.82736 4.84473 6.41736 4.84473Z" fill="#6F7181"/>
<path d="M14.4174 4.84473C14.0074 4.84473 13.6674 4.50473 13.6674 4.09473V1.09473C13.6674 0.684727 14.0074 0.344727 14.4174 0.344727C14.8274 0.344727 15.1674 0.684727 15.1674 1.09473V4.09473C15.1674 4.50473 14.8274 4.84473 14.4174 4.84473Z" fill="#6F7181"/>
<path d="M13.0974 21.8447H6.41736C2.76736 21.8447 0.667358 19.7447 0.667358 16.0947V7.59473C0.667358 3.94473 2.76736 1.84473 6.41736 1.84473H14.4174C18.0674 1.84473 20.1674 3.94473 20.1674 7.59473V12.7247C20.1674 13.0147 19.9974 13.2747 19.7474 13.4047C19.4874 13.5247 19.1774 13.4947 18.9574 13.3147C17.3774 12.0547 14.9474 12.0547 13.3674 13.3447C12.836 13.7616 12.4074 14.2948 12.1144 14.9033C11.8214 15.5118 11.6719 16.1794 11.6774 16.8547C11.6774 17.6747 11.8974 18.4747 12.3274 19.1647C12.6574 19.7047 13.0674 20.1547 13.5474 20.4947C13.8074 20.6847 13.9274 21.0247 13.8274 21.3347C13.7074 21.6347 13.4274 21.8447 13.0974 21.8447ZM6.41736 3.34473C3.55736 3.34473 2.16736 4.73473 2.16736 7.59473V16.0947C2.16736 18.9547 3.55736 20.3447 6.41736 20.3447H11.3074C11.2074 20.2147 11.1174 20.0747 11.0374 19.9347C10.4674 19.0147 10.1674 17.9447 10.1674 16.8447C10.1674 14.9947 10.9874 13.2947 12.4274 12.1647C14.1374 10.7747 16.6674 10.4747 18.6674 11.3947V7.59473C18.6674 4.73473 17.2774 3.34473 14.4174 3.34473H6.41736Z" fill="#6F7181"/>
<path d="M11.4174 10.8447H5.41736C5.00736 10.8447 4.66736 10.5047 4.66736 10.0947C4.66736 9.68473 5.00736 9.34473 5.41736 9.34473H11.4174C11.8274 9.34473 12.1674 9.68473 12.1674 10.0947C12.1674 10.5047 11.8274 10.8447 11.4174 10.8447Z" fill="#6F7181"/>
<path d="M8.03736 15.8447H5.41736C5.00736 15.8447 4.66736 15.5047 4.66736 15.0947C4.66736 14.6847 5.00736 14.3447 5.41736 14.3447H8.03736C8.23627 14.3447 8.42704 14.4237 8.56769 14.5644C8.70834 14.705 8.78736 14.8958 8.78736 15.0947C8.78736 15.2936 8.70834 15.4844 8.56769 15.6251C8.42704 15.7657 8.23627 15.8447 8.03736 15.8447V15.8447Z" fill="#6F7181"/>
<path d="M16.1674 22.8447C15.1338 22.8436 14.1182 22.575 13.2192 22.0651C12.3203 21.5552 11.5686 20.8212 11.0374 19.9347C10.4674 19.0147 10.1674 17.9447 10.1674 16.8447C10.1674 14.9947 10.9874 13.2947 12.4274 12.1647C14.5074 10.4747 17.7874 10.4647 19.8874 12.1347C20.6009 12.6944 21.1772 13.4097 21.5723 14.2259C21.9675 15.0422 22.171 15.9379 22.1674 16.8447C22.1674 17.9447 21.8674 19.0147 21.2974 19.9347C20.9836 20.4747 20.5775 20.9553 20.0974 21.3547C19.0158 22.3188 17.6162 22.8494 16.1674 22.8447V22.8447ZM16.1674 12.3447C15.1474 12.3447 14.1474 12.6947 13.3574 13.3347C12.826 13.7516 12.3974 14.2848 12.1044 14.8933C11.8114 15.5018 11.6619 16.1694 11.6674 16.8447C11.6674 17.6647 11.8874 18.4647 12.3174 19.1547C12.6474 19.6947 13.0574 20.1447 13.5374 20.4847C14.3074 21.0447 15.2174 21.3447 16.1674 21.3447C17.2774 21.3447 18.2974 20.9547 19.1174 20.2247C19.4774 19.9247 19.7674 19.5747 20.0074 19.1647C20.4374 18.4647 20.6674 17.6647 20.6674 16.8447C20.6674 15.4547 20.0474 14.1747 18.9574 13.3147C18.1574 12.6747 17.1974 12.3447 16.1674 12.3447Z" fill="#6F7181"/>
<path d="M16.1674 20.0947C15.7574 20.0947 15.4174 19.7547 15.4174 19.3447C15.4174 18.3847 14.6274 17.5947 13.6674 17.5947C13.2574 17.5947 12.9174 17.2547 12.9174 16.8447C12.9174 16.4347 13.2574 16.0947 13.6674 16.0947C14.6274 16.0947 15.4174 15.3047 15.4174 14.3447C15.4174 13.9347 15.7574 13.5947 16.1674 13.5947C16.5774 13.5947 16.9174 13.9347 16.9174 14.3447C16.9174 15.3047 17.7074 16.0947 18.6674 16.0947C19.0774 16.0947 19.4174 16.4347 19.4174 16.8447C19.4174 17.2547 19.0774 17.5947 18.6674 17.5947C17.7074 17.5947 16.9174 18.3847 16.9174 19.3447C16.9174 19.7547 16.5774 20.0947 16.1674 20.0947ZM15.7374 16.8447C15.8874 16.9747 16.0374 17.1147 16.1674 17.2747C16.2974 17.1247 16.4374 16.9747 16.5974 16.8447C16.4474 16.7147 16.2974 16.5747 16.1674 16.4147C16.0374 16.5747 15.8974 16.7147 15.7374 16.8447Z" fill="#6F7181"/>
</svg>
