<svg width="18" height="20" viewBox="0 0 18 20" fill="none" xmlns="http://www.w3.org/2000/svg">
<path d="M3.94324 4.48869L3.79128 5.09493L3.94324 4.48869ZM6.75537 2.8651L6.15437 2.69358L6.75537 2.8651ZM1.69865 8.37643L2.14769 7.94171L1.69865 8.37643ZM1.69865 11.6236L1.24961 11.1889H1.24961L1.69865 11.6236ZM3.94324 15.5113L4.0952 16.1176L3.94324 15.5113ZM6.75537 17.1349L6.15437 17.3065L6.75537 17.1349ZM11.2446 17.1349L11.8456 17.3065L11.2446 17.1349ZM14.0567 15.5113L14.2087 14.9051L14.0567 15.5113ZM16.3013 11.6236L15.8522 12.0583L16.3013 11.6236ZM16.3013 8.37643L15.8522 7.94171L16.3013 8.37643ZM14.0567 4.48869L13.9047 3.88244L14.0567 4.48869ZM11.2446 2.8651L11.8456 2.69358L11.2446 2.8651ZM3.79128 5.09493C5.34037 5.48323 6.91811 4.57232 7.35638 3.03662L6.15437 2.69358C5.90123 3.58059 4.98994 4.10672 4.0952 3.88244L3.79128 5.09493ZM2.14769 7.94171C0.951639 6.70627 2.12333 4.67684 3.79128 5.09493L4.0952 3.88244C1.20743 3.15859 -0.821158 6.6722 1.24961 8.81116L2.14769 7.94171ZM2.14769 12.0583C3.25851 10.9109 3.25851 9.08911 2.14769 7.94171L1.24961 8.81116C1.89121 9.47389 1.89121 10.5261 1.24961 11.1889L2.14769 12.0583ZM3.79128 14.9051C2.12333 15.3232 0.951639 13.2938 2.14769 12.0583L1.24961 11.1889C-0.821158 13.3278 1.20743 16.8414 4.0952 16.1176L3.79128 14.9051ZM7.35638 16.9634C6.91811 15.4277 5.34037 14.5168 3.79128 14.9051L4.0952 16.1176C4.98994 15.8933 5.90123 16.4194 6.15437 17.3065L7.35638 16.9634ZM10.6436 16.9634C10.1717 18.6169 7.82828 18.6169 7.35638 16.9634L6.15437 17.3065C6.97138 20.1693 11.0286 20.1693 11.8456 17.3065L10.6436 16.9634ZM14.2087 14.9051C12.6596 14.5168 11.0818 15.4277 10.6436 16.9634L11.8456 17.3065C12.0987 16.4194 13.01 15.8933 13.9047 16.1176L14.2087 14.9051ZM15.8522 12.0583C17.0483 13.2938 15.8766 15.3232 14.2087 14.9051L13.9047 16.1176C16.7925 16.8414 18.8211 13.3278 16.7503 11.1889L15.8522 12.0583ZM15.8522 7.94171C14.7414 9.08911 14.7414 10.9109 15.8522 12.0583L16.7503 11.1889C16.1087 10.5261 16.1087 9.47389 16.7503 8.81116L15.8522 7.94171ZM14.2087 5.09493C15.8766 4.67684 17.0483 6.70626 15.8522 7.94171L16.7503 8.81116C18.8211 6.6722 16.7925 3.15859 13.9047 3.88244L14.2087 5.09493ZM10.6436 3.03662C11.0818 4.57232 12.6596 5.48323 14.2087 5.09493L13.9047 3.88244C13.01 4.10672 12.0987 3.58059 11.8456 2.69358L10.6436 3.03662ZM11.8456 2.69358C11.0286 -0.169234 6.97138 -0.169233 6.15437 2.69358L7.35638 3.03662C7.82827 1.38309 10.1717 1.38309 10.6436 3.03662L11.8456 2.69358ZM5.87496 10C5.87496 11.7259 7.27407 13.125 8.99996 13.125V11.875C7.96443 11.875 7.12496 11.0355 7.12496 10H5.87496ZM8.99996 13.125C10.7259 13.125 12.125 11.7259 12.125 10H10.875C10.875 11.0355 10.0355 11.875 8.99996 11.875V13.125ZM12.125 10C12.125 8.27413 10.7259 6.87501 8.99996 6.87501V8.12501C10.0355 8.12501 10.875 8.96448 10.875 10H12.125ZM8.99996 6.87501C7.27407 6.87501 5.87496 8.27413 5.87496 10H7.12496C7.12496 8.96448 7.96443 8.12501 8.99996 8.12501V6.87501Z" fill="#8E8E93"/>
</svg>
