<svg width="20" height="20" viewBox="0 0 20 20" fill="none" xmlns="http://www.w3.org/2000/svg">
<path d="M4.54998 15.4083V12.975C4.54998 12.1666 5.18331 11.4416 6.08331 11.4416C6.89165 11.4416 7.61665 12.075 7.61665 12.975V15.3166C7.61665 16.9416 6.26665 18.2916 4.64165 18.2916C3.01665 18.2916 1.66665 16.9333 1.66665 15.3166V10.1833C1.57498 5.49998 5.27498 1.70831 9.95831 1.70831C14.6416 1.70831 18.3333 5.49998 18.3333 10.0916V15.225C18.3333 16.85 16.9833 18.2 15.3583 18.2C13.7333 18.2 12.3833 16.85 12.3833 15.225V12.8833C12.3833 12.075 13.0166 11.35 13.9166 11.35C14.725 11.35 15.45 11.9833 15.45 12.8833V15.4083" stroke="#3A3A3C" stroke-width="1.5" stroke-linecap="round" stroke-linejoin="round"/>
</svg>
