<svg width="42" height="42" viewBox="0 0 42 42" fill="none" xmlns="http://www.w3.org/2000/svg">
<path fill-rule="evenodd" clip-rule="evenodd" d="M11.9795 0.166382H30.042C37.1045 0.166382 41.8337 5.12472 41.8337 12.4997V29.5226C41.8337 36.8747 37.1045 41.833 30.042 41.833H11.9795C4.91699 41.833 0.166992 36.8747 0.166992 29.5226V12.4997C0.166992 5.12472 4.91699 0.166382 11.9795 0.166382ZM19.8128 27.2289L29.7087 17.333C30.417 16.6247 30.417 15.4789 29.7087 14.7497C29.0003 14.0414 27.8337 14.0414 27.1253 14.7497L18.5212 23.3539L14.8753 19.708C14.167 18.9997 13.0003 18.9997 12.292 19.708C11.5837 20.4164 11.5837 21.5622 12.292 22.2914L17.2503 27.2289C17.6045 27.583 18.0628 27.7497 18.5212 27.7497C19.0003 27.7497 19.4587 27.583 19.8128 27.2289Z" fill="#0ED00A"/>
</svg>
