<svg width="22" height="22" viewBox="0 0 22 22" fill="none" xmlns="http://www.w3.org/2000/svg">
<path d="M4.61737 9.55473C4.42737 9.55473 4.22737 9.47473 4.08737 9.33473C3.98318 9.22882 3.91246 9.09461 3.88401 8.9488C3.85556 8.80299 3.87064 8.65203 3.92737 8.51473L5.78737 4.07473C5.82737 3.98473 5.84737 3.92473 5.87737 3.87473C7.35737 0.464726 9.24737 -0.365274 12.5874 0.914726C12.7774 0.984726 12.9274 1.13473 13.0074 1.32473C13.0874 1.51473 13.0874 1.72473 13.0074 1.91473L10.0774 8.71473C9.95737 8.99473 9.68737 9.16473 9.38737 9.16473H6.53737C5.96737 9.16473 5.42737 9.27472 4.90737 9.49473C4.81737 9.53473 4.71737 9.55473 4.61737 9.55473ZM10.0274 1.84473C8.78737 1.84473 8.02737 2.65473 7.23737 4.49473C7.22737 4.52473 7.20737 4.55473 7.19737 4.58473L5.88737 7.69473C6.10737 7.67473 6.31737 7.66473 6.53737 7.66473H8.88737L11.2974 2.06473C10.8274 1.91473 10.4074 1.84473 10.0274 1.84473Z" fill="#6F7181"/>
<path d="M17.7074 9.36472C17.6374 9.36472 17.5574 9.35472 17.4874 9.33472C17.1074 9.22472 16.7074 9.16472 16.2874 9.16472H9.38737C9.13737 9.16472 8.89737 9.03472 8.75737 8.82472C8.69138 8.71977 8.6515 8.60054 8.64106 8.47701C8.63062 8.35349 8.64993 8.22925 8.69737 8.11472L11.5974 1.38472C11.7474 1.02472 12.1874 0.77472 12.5574 0.90472C12.6774 0.94472 12.7874 0.99472 12.9074 1.04472L15.2674 2.03472C16.6474 2.60472 17.5674 3.20472 18.1674 3.92472C18.2874 4.06472 18.3874 4.21472 18.4874 4.37472C18.5974 4.54472 18.6974 4.74472 18.7674 4.95472C18.7974 5.02472 18.8474 5.15472 18.8774 5.29472C19.1574 6.24472 19.0174 7.40472 18.4174 8.90472C18.3548 9.04082 18.2548 9.15632 18.1291 9.23777C18.0034 9.31921 17.8572 9.36324 17.7074 9.36472ZM10.5274 7.66472H16.2974C16.6174 7.66472 16.9274 7.69472 17.2374 7.74472C17.5174 6.87472 17.5774 6.20472 17.4174 5.66472C17.3974 5.57472 17.3774 5.53472 17.3674 5.49472C17.3074 5.33472 17.2674 5.24472 17.2174 5.16472C17.1474 5.05472 17.0974 4.96472 17.0174 4.87472C16.5874 4.35472 15.8274 3.87472 14.6874 3.40472L12.7174 2.58472L10.5274 7.66472Z" fill="#6F7181"/>
<path d="M15.3174 21.8447H7.51736C7.23736 21.8447 6.97736 21.8247 6.71736 21.7947C3.20736 21.5647 1.20736 19.5547 0.967358 16.0047C0.937358 15.7847 0.917358 15.5147 0.917358 15.2447V13.2947C0.917358 11.0447 2.25736 9.01472 4.32736 8.11472C5.03736 7.81472 5.77736 7.66472 6.54736 7.66472H16.3074C16.8774 7.66472 17.4274 7.74472 17.9374 7.90472C20.2874 8.61472 21.9374 10.8347 21.9374 13.2947V15.2447C21.9374 15.4647 21.9274 15.6747 21.9174 15.8747C21.6974 19.7847 19.4174 21.8447 15.3174 21.8447ZM6.53736 9.16472C5.96736 9.16472 5.42736 9.27472 4.90736 9.49472C3.38736 10.1547 2.40736 11.6447 2.40736 13.2947V15.2447C2.40736 15.4547 2.42736 15.6647 2.44736 15.8647C2.63736 18.7147 4.03736 20.1147 6.84736 20.3047C7.09736 20.3347 7.29736 20.3547 7.50736 20.3547H15.3074C18.6074 20.3547 20.2274 18.9047 20.3874 15.8047C20.3974 15.6247 20.4074 15.4447 20.4074 15.2447V13.2947C20.4074 11.4847 19.1974 9.86472 17.4774 9.33472C17.0974 9.22472 16.6974 9.16472 16.2774 9.16472H6.53736Z" fill="#6F7181"/>
<path d="M1.65735 14.0447C1.24735 14.0447 0.907349 13.7047 0.907349 13.2947V10.3647C0.907349 7.21473 3.13735 4.49473 6.21735 3.89473C6.48735 3.84473 6.76735 3.94473 6.94735 4.15473C7.11735 4.36473 7.16735 4.66473 7.05735 4.91473L5.30735 9.09473C5.22964 9.27059 5.09119 9.41259 4.91735 9.49473C3.39735 10.1547 2.41735 11.6447 2.41735 13.2947C2.40735 13.7047 2.07735 14.0447 1.65735 14.0447ZM5.01735 5.91473C4.37679 6.27585 3.82179 6.77107 3.39031 7.36651C2.95883 7.96195 2.66106 8.64357 2.51735 9.36473C2.95735 8.91473 3.46735 8.53473 4.04735 8.25473L5.01735 5.91473Z" fill="#6F7181"/>
<path d="M21.1774 14.0447C20.7674 14.0447 20.4274 13.7047 20.4274 13.2947C20.4274 11.4847 19.2174 9.86472 17.4974 9.33472C17.3981 9.30539 17.306 9.25564 17.227 9.18866C17.148 9.12169 17.0838 9.03896 17.0386 8.94577C16.9935 8.85258 16.9682 8.75099 16.9646 8.64749C16.9609 8.54399 16.9789 8.44087 17.0174 8.34472C17.4874 7.17472 17.6074 6.32472 17.4174 5.66472C17.3974 5.57472 17.3774 5.53472 17.3674 5.49472C17.3045 5.35281 17.2872 5.19494 17.3176 5.04276C17.348 4.89058 17.4248 4.75154 17.5374 4.64472C17.7674 4.42472 18.1174 4.37472 18.3974 4.52472C19.4643 5.08143 20.3577 5.92052 20.9802 6.95039C21.6027 7.98025 21.9304 9.16133 21.9274 10.3647V13.2947C21.9274 13.7047 21.5874 14.0447 21.1774 14.0447ZM18.6674 8.18472C19.2974 8.47472 19.8574 8.88472 20.3274 9.37472C20.1374 8.39472 19.6674 7.50472 18.9774 6.80472C18.9274 7.22472 18.8274 7.68472 18.6674 8.18472Z" fill="#6F7181"/>
</svg>
