<svg width="16" height="20" viewBox="0 0 16 20" fill="none" xmlns="http://www.w3.org/2000/svg">
<path fill-rule="evenodd" clip-rule="evenodd" d="M0.917192 11.4893V11.3068C0.943963 10.7669 1.117 10.2438 1.41847 9.79136C1.92026 9.2479 2.26376 8.58194 2.41293 7.86333C2.41293 7.30794 2.41293 6.74461 2.46144 6.18921C2.71208 3.51537 5.3559 1.66669 7.96738 1.66669H8.03207C10.6435 1.66669 13.2874 3.51537 13.5461 6.18921C13.5946 6.74461 13.5461 7.30794 13.5865 7.86333C13.7377 8.58361 14.0809 9.25164 14.581 9.79929C14.8847 10.2477 15.058 10.7689 15.0823 11.3068V11.4814C15.1003 12.2067 14.8505 12.914 14.3789 13.4728C13.7556 14.1262 12.9099 14.5327 12.0018 14.6154C9.339 14.901 6.65237 14.901 3.98952 14.6154C3.08246 14.5292 2.23797 14.1233 1.61251 13.4728C1.14817 12.9136 0.901704 12.2105 0.917192 11.4893Z" stroke="white" stroke-width="1.5" stroke-linecap="round" stroke-linejoin="round"/>
<path d="M5.9624 17.3765C6.37846 17.8988 6.98945 18.2367 7.66015 18.3157C8.33084 18.3946 9.00593 18.2079 9.53601 17.797C9.69904 17.6755 9.84574 17.5342 9.9726 17.3765" stroke="white" stroke-width="1.5" stroke-linecap="round" stroke-linejoin="round"/>
</svg>
